# xmcd CD database file
#
# Track frame offsets:
#	150
#	55852
#	214522
#
# Disc length: 3221 seconds
#
# Revision: 0
# Processed by: cddbd v1.5.1PL2 Copyright (c) Steve Scherf et al.
# Submitted via: CDex 1.60beta1
#
DISCID=210c9303
DTITLE=大本山_永平寺 - 永平寺の朝 〜大梵鐘と般若心経〜
DYEAR=1999
DGENRE=Meditative
TTITLE0=永平寺の朝
TTITLE1=永平寺の朝 〜大梵鐘〜
TTITLE2=摩訶般若波羅密多心経 摩訶般若波羅密多心経回向
EXTD=YEAR: 1999
EXTT0=
EXTT1=
EXTT2=
PLAYORDER=
